<svg xmlns="http://www.w3.org/2000/svg" viewBox="0 0 100 100"><defs><clipPath id="c"><rect x="17" y="18" width="64" height="68" rx="6"/></clipPath></defs><rect width="100" height="100" fill="#D5462A"/><rect x="29" y="11" width="59" height="72" rx="6" fill="#EBB3A3" opacity=".85" transform="rotate(9 58 47)"/><g transform="rotate(-4 49 52)"><rect x="17" y="20" width="64" height="68" rx="6" fill="#8E2A15" opacity=".45"/><g clip-path="url(#c)"><rect x="17" y="18" width="64" height="68" fill="#FFFCF5"/><path d="M17 31.5h64" stroke="#D5462A" stroke-width="1.3"/><path d="M17 39.5h64M17 47.5h64M17 55.5h64M17 63.5h64M17 71.5h64M17 79.5h64" stroke="#C9D6E6" stroke-width=".6"/><path d="M17 81h11v5H17z" fill="#E0512B"/><path d="M28 81h11v5H28z" fill="#D8761A"/><path d="M39 81h10v5H39z" fill="#B98A0A"/><path d="M49 81h11v5H49z" fill="#2A9459"/><path d="M60 81h11v5H60z" fill="#2D66BA"/><path d="M71 81h10v5H71z" fill="#7646B0"/></g><text x="33" y="70" font-family="Georgia,'Times New Roman',serif" font-size="42" font-weight="700" fill="#1C1A16">L</text><circle cx="65.5" cy="65" r="3.6" fill="#D5462A"/></g></svg>
